<svg width="10" height="16" viewBox="0 0 10 16" fill="none" xmlns="http://www.w3.org/2000/svg">
<path d="M9.00038 9H6.00038V1C6.00038 0.734784 5.89502 0.48043 5.70748 0.292893C5.51995 0.105357 5.26559 0 5.00038 0C4.73516 0 4.48081 0.105357 4.29327 0.292893C4.10573 0.48043 4.00038 0.734784 4.00038 1V9H1.00038C0.811944 8.99993 0.627327 9.0531 0.467798 9.15338C0.308268 9.25367 0.180319 9.39698 0.0986941 9.56682C0.0170689 9.73665 -0.0149105 9.92609 0.00644109 10.1133C0.0277926 10.3005 0.101606 10.4779 0.219376 10.625L4.21938 15.625C4.31306 15.7422 4.4319 15.8367 4.56709 15.9017C4.70229 15.9667 4.85037 16.0005 5.00038 16.0005C5.15038 16.0005 5.29847 15.9667 5.43366 15.9017C5.56885 15.8367 5.68769 15.7422 5.78138 15.625L9.78138 10.625C9.89915 10.4779 9.97296 10.3005 9.99431 10.1133C10.0157 9.92609 9.98368 9.73665 9.90206 9.56682C9.82043 9.39698 9.69248 9.25367 9.53295 9.15338C9.37342 9.0531 9.18881 8.99993 9.00038 9Z" fill="#475569"/>
</svg>
