<svg width="16" height="10" viewBox="0 0 16 10" fill="none" xmlns="http://www.w3.org/2000/svg">
<path d="M15.0005 4.00001H7.00047V1.00001C7.00054 0.811578 6.94737 0.626961 6.84709 0.467432C6.7468 0.307902 6.60349 0.179953 6.43365 0.0983279C6.26382 0.0167027 6.07438 -0.0152767 5.88716 0.00607488C5.69994 0.0274264 5.52256 0.10124 5.37547 0.21901L0.375469 4.21901C0.258315 4.31269 0.163737 4.43153 0.0987423 4.56673C0.0337473 4.70192 0 4.85 0 5.00001C0 5.15002 0.0337473 5.2981 0.0987423 5.43329C0.163737 5.56849 0.258315 5.68733 0.375469 5.78101L5.37547 9.78101C5.52256 9.89878 5.69994 9.97259 5.88716 9.99394C6.07438 10.0153 6.26382 9.98332 6.43365 9.90169C6.60349 9.82007 6.7468 9.69212 6.84709 9.53259C6.94737 9.37306 7.00054 9.18844 7.00047 9.00001V6.00001H15.0005C15.2657 6.00001 15.52 5.89465 15.7076 5.70712C15.8951 5.51958 16.0005 5.26523 16.0005 5.00001C16.0005 4.73479 15.8951 4.48044 15.7076 4.2929C15.52 4.10537 15.2657 4.00001 15.0005 4.00001Z" fill="#475569"/>
</svg>
