
<svg xmlns="http://www.w3.org/2000/svg" viewBox="0 0 246 114.8">
  <g>
    <polygon points="25.49 100.49 12.91 69.43 0 69.43 0 114.29 10.93 114.29 10.93 87.32 21.02 114.29 29.84 114.29 39.87 87.39 39.87 114.29 50.8 114.29 50.8 69.43 37.95 69.43 25.49 100.49"/>
    <path d="M79.1,97.99c0,2.39-.62,4.24-1.85,5.56-1.24,1.32-2.92,1.98-5.05,1.98s-3.75-.66-4.98-1.98c-1.24-1.32-1.85-3.17-1.85-5.56v-19.36h-10.86v20.83c0,3.11,.58,5.81,1.73,8.11,1.15,2.3,2.77,4.07,4.86,5.3,2.09,1.19,4.49,1.79,7.22,1.79,2.3,0,4.39-.47,6.26-1.41,1.92-.98,3.43-2.26,4.54-3.83v4.86h10.93v-35.65h-10.93v19.36Z"/>
    <path d="M139.53,78.25c-2.51,0-4.84,.62-6.96,1.85-2.13,1.24-3.81,2.83-5.05,4.79-1.19-2.13-2.85-3.77-4.98-4.92-2.09-1.15-4.47-1.73-7.16-1.73-2.26,0-4.28,.45-6.07,1.34-1.79,.85-3.24,2.02-4.34,3.51v-4.47h-10.93v35.65h10.93v-19.36c0-2.3,.6-4.07,1.79-5.3,1.24-1.28,2.92-1.92,5.05-1.92s3.79,.64,4.98,1.92c1.23,1.24,1.85,3,1.85,5.3v19.36h10.86v-19.36c0-2.3,.6-4.07,1.79-5.3,1.24-1.28,2.92-1.92,5.05-1.92s3.79,.64,4.98,1.92c1.24,1.24,1.85,3,1.85,5.3v19.36h10.86v-20.83c0-4.77-1.32-8.5-3.96-11.18-2.6-2.68-6.11-4.03-10.54-4.03Z"/>
    <path d="M187.75,80.36c-2.39-1.49-5.05-2.24-7.99-2.24-2.47,0-4.66,.51-6.58,1.53-1.92,1.02-3.39,2.36-4.41,4.03v-16.68h-10.93v47.28h10.93v-4.98c1.07,1.66,2.53,3,4.41,4.03,1.87,.98,4.07,1.47,6.58,1.47,2.94,0,5.6-.75,7.99-2.24,2.39-1.53,4.26-3.68,5.62-6.45,1.41-2.81,2.11-6.05,2.11-9.71s-.7-6.88-2.11-9.65c-1.36-2.77-3.24-4.9-5.62-6.39Zm-5.69,22.56c-1.53,1.58-3.39,2.36-5.56,2.36s-4.03-.79-5.56-2.36c-1.49-1.58-2.24-3.73-2.24-6.45s.75-4.88,2.24-6.45c1.53-1.58,3.39-2.36,5.56-2.36s4.07,.79,5.56,2.36c1.53,1.53,2.3,3.66,2.3,6.39s-.77,4.9-2.3,6.52Z"/>
    <rect x="197.38" y="67" width="10.93" height="47.28"/>
    <path d="M246,95.88c0-3.58-.77-6.71-2.3-9.39-1.49-2.68-3.58-4.75-6.26-6.2-2.68-1.45-5.75-2.17-9.2-2.17s-6.67,.75-9.39,2.24c-2.73,1.49-4.86,3.62-6.39,6.39-1.49,2.77-2.24,6.01-2.24,9.71s.77,6.94,2.3,9.71c1.53,2.77,3.66,4.9,6.39,6.39,2.73,1.49,5.84,2.24,9.33,2.24,2.9,0,5.52-.53,7.86-1.6,2.34-1.07,4.28-2.53,5.81-4.41,1.58-1.87,2.66-3.98,3.26-6.33h-11.63c-1.07,2.3-2.96,3.45-5.69,3.45-1.83,0-3.39-.58-4.67-1.73-1.24-1.19-1.94-2.9-2.11-5.11h24.73c.13-1.11,.19-2.17,.19-3.19Zm-24.86-2.88c.3-1.96,1.06-3.47,2.3-4.54,1.28-1.07,2.83-1.6,4.66-1.6s3.51,.55,4.79,1.66c1.28,1.11,1.92,2.6,1.92,4.47h-13.67Z"/>
  </g>
  <g>
    <path d="M130.17,40h-14.34c-1.78,0-2.67,2.15-1.41,3.41l7.17,7.17c.78,.78,2.05,.78,2.83,0l7.17-7.17c1.26-1.26,.37-3.41-1.41-3.41Z"/>
    <path d="M155,12.01C155,5.38,149.63,0,143,0c-3.15,0-5.98,1.24-8.12,3.23-7.46-4.31-16.3-4.31-23.77,0C108.98,1.24,106.15,0,103,0c-6.63,0-12,5.37-12,12,0,3.9,1.89,7.31,4.77,9.48-4.71,9.98-7.33,22.58-1.03,31.7,4.95,7.17,14.46,10.81,28.26,10.81s23.31-3.64,28.26-10.81c6.3-9.12,3.68-21.72-1.03-31.7,2.88-2.18,4.77-5.59,4.77-9.48Zm-10.32,36.64c-3.37,4.88-10.66,7.35-21.68,7.35s-18.31-2.48-21.68-7.35c-4.2-6.09-1.67-15.34,.22-20.31,1.8-4.77,8.69-20.33,21.46-20.33s19.66,15.56,21.46,20.33c1.89,4.97,4.42,14.23,.22,20.31Z"/>
    <path d="M117.68,26.47c-.45-1.77-1.52-4.2-4.65-4.2-4.32,0-7.95,6.38-7.99,9.22-.04,2.84,1.89,5.93,4.28,5.93s4.49-2.14,6.63-5.19c2.14-3.05,2.18-3.99,1.73-5.77Z"/>
    <path d="M132.98,22.27c-3.13,0-4.2,2.43-4.65,4.2-.45,1.77-.41,2.72,1.73,5.77,2.14,3.05,4.24,5.19,6.63,5.19s4.32-3.09,4.28-5.93c-.04-2.84-3.67-9.22-7.99-9.22Z"/>
  </g>
</svg>