<svg width="16" height="10" viewBox="0 0 16 10" fill="none" xmlns="http://www.w3.org/2000/svg">
<path d="M10.625 0.21901C10.4779 0.10124 10.3005 0.0274264 10.1133 0.00607488C9.92609 -0.0152767 9.73665 0.0167027 9.56682 0.0983279C9.39698 0.179953 9.25367 0.307902 9.15338 0.467432C9.0531 0.626961 8.99993 0.811578 9 1.00001V4.00001H1C0.734784 4.00001 0.48043 4.10537 0.292893 4.2929C0.105357 4.48044 0 4.73479 0 5.00001C0 5.26523 0.105357 5.51958 0.292893 5.70712C0.48043 5.89465 0.734784 6.00001 1 6.00001H9V9.00001C8.99993 9.18844 9.0531 9.37306 9.15338 9.53259C9.25367 9.69212 9.39698 9.82007 9.56682 9.90169C9.73665 9.98332 9.92609 10.0153 10.1133 9.99394C10.3005 9.97259 10.4779 9.89878 10.625 9.78101L15.625 5.78101C15.7422 5.68733 15.8367 5.56849 15.9017 5.43329C15.9667 5.2981 16.0005 5.15002 16.0005 5.00001C16.0005 4.85 15.9667 4.70192 15.9017 4.56673C15.8367 4.43153 15.7422 4.31269 15.625 4.21901L10.625 0.21901Z" fill="#475569"/>
</svg>
