<?xml version="1.0" encoding="UTF-8"?>
<svg id="Ebene_1" data-name="Ebene 1" xmlns="http://www.w3.org/2000/svg" xmlns:xlink="http://www.w3.org/1999/xlink" viewBox="0 0 131.44 30.56">
  <defs>
    <style>
      .cls-1 {
        fill: #5b4b9a;
      }

      .cls-2 {
        fill: url(#Unbenannter_Verlauf_6-4);
      }

      .cls-3 {
        fill: url(#Unbenannter_Verlauf_6-3);
      }

      .cls-4 {
        fill: url(#Unbenannter_Verlauf_6-2);
      }

      .cls-5 {
        fill: url(#Unbenannter_Verlauf_6-6);
      }

      .cls-6 {
        fill: url(#Unbenannter_Verlauf_6-5);
      }

      .cls-7 {
        fill: url(#Unbenannter_Verlauf_6);
      }
    </style>
    <linearGradient id="Unbenannter_Verlauf_6" data-name="Unbenannter Verlauf 6" x1="35.56" y1="16.09" x2="131.44" y2="16.09" gradientTransform="translate(0 31.56) scale(1 -1)" gradientUnits="userSpaceOnUse">
      <stop offset="0" stop-color="#e74c95"/>
      <stop offset="1" stop-color="#5b4b9a"/>
    </linearGradient>
    <linearGradient id="Unbenannter_Verlauf_6-2" data-name="Unbenannter Verlauf 6" x1="35.56" y1="14.23" x2="131.44" y2="14.23" xlink:href="#Unbenannter_Verlauf_6"/>
    <linearGradient id="Unbenannter_Verlauf_6-3" data-name="Unbenannter Verlauf 6" x1="35.56" y1="14.38" x2="131.44" y2="14.38" xlink:href="#Unbenannter_Verlauf_6"/>
    <linearGradient id="Unbenannter_Verlauf_6-4" data-name="Unbenannter Verlauf 6" x1="35.56" y1="16.47" x2="131.44" y2="16.47" xlink:href="#Unbenannter_Verlauf_6"/>
    <linearGradient id="Unbenannter_Verlauf_6-5" data-name="Unbenannter Verlauf 6" x1="35.56" y1="16.57" x2="131.44" y2="16.57" xlink:href="#Unbenannter_Verlauf_6"/>
    <linearGradient id="Unbenannter_Verlauf_6-6" data-name="Unbenannter Verlauf 6" x1="35.56" y1="14.3" x2="131.44" y2="14.3" xlink:href="#Unbenannter_Verlauf_6"/>
  </defs>
  <g>
    <path class="cls-1" d="M17.82,19.1h-5.09c-.73,0-1.38,.41-1.71,1.06-.33,.65-.26,1.42,.18,2l2.55,3.4c.36,.48,.92,.76,1.53,.76s1.16-.28,1.53-.76l2.55-3.39c.44-.58,.51-1.35,.18-2-.33-.65-.98-1.06-1.71-1.06Z"/>
    <path class="cls-1" d="M29.07,12.28c-.34-.89-.76-1.79-1.24-2.68,1.63-.86,2.73-2.57,2.73-4.51,0-2.81-2.28-5.09-5.09-5.09-1.83,0-3.54,1.07-4.46,2.65-1.69-.86-3.6-1.38-5.72-1.38s-4.04,.52-5.72,1.38c-.92-1.58-2.63-2.65-4.46-2.65C2.28,0,0,2.28,0,5.09c0,1.94,1.09,3.65,2.73,4.51-.49,.88-.91,1.79-1.25,2.68-1.43,3.77-2.54,9.12,.26,13.18,2.33,3.38,6.89,5.09,13.54,5.09s11.2-1.71,13.54-5.09c2.8-4.06,1.69-9.41,.26-13.18Zm-2.35,11.74c-1.83,2.65-5.68,3.99-11.44,3.99s-9.61-1.34-11.44-3.99c-2.18-3.15-1.19-7.63,.02-10.83,.59-1.56,3.93-9.36,11.42-9.36s10.82,7.8,11.42,9.36c1.21,3.2,2.2,7.68,.02,10.83Z"/>
    <path class="cls-1" d="M12.27,15.76c1.15-1.63,1.25-2.28,.96-3.41-.54-2.13-1.9-2.58-2.94-2.58-2.59,0-4.61,3.49-4.63,5.24-.01,1.05,.41,2.14,1.11,2.85,.49,.5,1.07,.76,1.67,.76,1.61,0,2.84-1.45,3.84-2.87Z"/>
    <path class="cls-1" d="M20.27,9.77c-1.04,0-2.4,.45-2.94,2.58-.29,1.12-.19,1.77,.96,3.41,.99,1.42,2.23,2.87,3.84,2.87,.6,0,1.18-.26,1.67-.76,.7-.71,1.12-1.8,1.11-2.85-.02-1.75-2.04-5.24-4.63-5.24Z"/>
  </g>
  <path class="cls-7" d="M55.36,6.72V24.2h-4.26V13.72l-3.91,10.48h-3.44l-3.93-10.51v10.51h-4.26V6.72h5.03l4.91,12.1,4.86-12.1h5.01Z"/>
  <path class="cls-4" d="M70.65,10.31v13.9h-4.26v-1.89c-.43,.61-1.02,1.11-1.77,1.49-.73,.37-1.54,.55-2.44,.55-1.06,0-2-.23-2.81-.7-.81-.48-1.44-1.17-1.89-2.07-.45-.9-.67-1.95-.67-3.16V10.31h4.23v7.55c0,.93,.24,1.65,.72,2.17,.48,.51,1.13,.77,1.94,.77s1.49-.26,1.97-.77c.48-.51,.72-1.24,.72-2.17v-7.55h4.26Z"/>
  <path class="cls-3" d="M89.94,10.16c1.73,0,3.1,.52,4.11,1.57,1.03,1.05,1.54,2.5,1.54,4.36v8.12h-4.23v-7.55c0-.9-.24-1.59-.72-2.07-.46-.5-1.11-.75-1.94-.75s-1.49,.25-1.97,.75c-.46,.48-.7,1.17-.7,2.07v7.55h-4.23v-7.55c0-.9-.24-1.59-.72-2.07-.46-.5-1.11-.75-1.94-.75s-1.49,.25-1.97,.75c-.46,.48-.7,1.17-.7,2.07v7.55h-4.26V10.31h4.26v1.74c.43-.58,1-1.04,1.69-1.37,.7-.35,1.49-.52,2.37-.52,1.05,0,1.98,.22,2.79,.67,.83,.45,1.48,1.09,1.94,1.92,.48-.76,1.14-1.39,1.97-1.87,.83-.48,1.74-.72,2.71-.72Z"/>
  <path class="cls-2" d="M101.34,12.27c.4-.65,.97-1.17,1.72-1.57s1.6-.6,2.57-.6c1.15,0,2.18,.29,3.11,.87,.93,.58,1.66,1.41,2.19,2.49,.55,1.08,.82,2.33,.82,3.76s-.27,2.69-.82,3.79c-.53,1.08-1.26,1.92-2.19,2.52-.93,.58-1.97,.87-3.11,.87-.98,0-1.83-.19-2.57-.57-.73-.4-1.3-.92-1.72-1.57v1.94h-4.26V5.78h4.26v6.5Zm6.08,4.96c0-1.06-.3-1.89-.9-2.49-.58-.61-1.3-.92-2.17-.92s-1.57,.31-2.17,.92c-.58,.61-.87,1.45-.87,2.52s.29,1.9,.87,2.52c.6,.61,1.32,.92,2.17,.92s1.57-.31,2.17-.92c.6-.63,.9-1.48,.9-2.54Z"/>
  <path class="cls-6" d="M116.75,5.78V24.2h-4.26V5.78h4.26Z"/>
  <path class="cls-5" d="M131.44,17.03c0,.4-.03,.81-.07,1.25h-9.64c.07,.86,.34,1.53,.82,1.99,.5,.45,1.1,.67,1.82,.67,1.06,0,1.8-.45,2.22-1.34h4.53c-.23,.91-.66,1.73-1.27,2.47-.6,.73-1.35,1.3-2.27,1.72-.91,.42-1.93,.62-3.06,.62-1.36,0-2.57-.29-3.64-.87-1.06-.58-1.89-1.41-2.49-2.49-.6-1.08-.9-2.34-.9-3.79s.29-2.71,.87-3.79c.6-1.08,1.43-1.91,2.49-2.49,1.06-.58,2.28-.87,3.66-.87s2.54,.28,3.59,.85c1.05,.56,1.86,1.37,2.44,2.42,.6,1.05,.9,2.27,.9,3.66Zm-4.36-1.12c0-.73-.25-1.31-.75-1.74-.5-.43-1.12-.65-1.87-.65s-1.32,.21-1.82,.62c-.48,.42-.78,1-.9,1.77h5.33Z"/>
</svg>