<svg xmlns="http://www.w3.org/2000/svg" viewBox="0 0 134 26.03" class="fill-pink-300">
  <path d="M27.67,1.32V25.76h-5.95V11.1l-5.46,14.65h-4.8L5.95,11.07v14.69H0V1.32H7.03l6.86,16.92L20.67,1.32h7Z"/>
  <path d="M49.04,6.33V25.76h-5.95v-2.65c-.6,.86-1.43,1.55-2.47,2.09-1.02,.51-2.16,.77-3.41,.77-1.49,0-2.8-.32-3.93-.97-1.14-.67-2.02-1.64-2.65-2.89s-.94-2.73-.94-4.42V6.33h5.92v10.55c0,1.3,.34,2.31,1.01,3.03,.67,.72,1.58,1.08,2.71,1.08s2.08-.36,2.75-1.08,1.01-1.73,1.01-3.03V6.33h5.95Z"/>
  <path d="M76.01,6.13c2.41,0,4.33,.73,5.74,2.19,1.44,1.46,2.16,3.49,2.16,6.09v11.35h-5.92V15.21c0-1.25-.34-2.22-1.01-2.89-.65-.7-1.55-1.04-2.71-1.04s-2.08,.35-2.75,1.04c-.65,.67-.97,1.64-.97,2.89v10.55h-5.92V15.21c0-1.25-.34-2.22-1.01-2.89-.65-.7-1.55-1.04-2.71-1.04s-2.08,.35-2.75,1.04c-.65,.67-.97,1.64-.97,2.89v10.55h-5.95V6.33h5.95v2.44c.6-.81,1.39-1.45,2.37-1.91,.97-.49,2.08-.73,3.31-.73,1.46,0,2.76,.31,3.9,.94,1.16,.63,2.06,1.52,2.71,2.68,.67-1.07,1.59-1.94,2.75-2.61s2.42-1.01,3.79-1.01Z"/>
  <path d="M91.93,9.08c.56-.9,1.36-1.64,2.4-2.19,1.04-.56,2.24-.84,3.58-.84,1.6,0,3.05,.41,4.35,1.22,1.3,.81,2.32,1.97,3.06,3.48,.77,1.51,1.15,3.26,1.15,5.26s-.38,3.76-1.15,5.29c-.74,1.51-1.76,2.68-3.06,3.52-1.3,.81-2.75,1.22-4.35,1.22-1.37,0-2.56-.27-3.58-.8-1.02-.56-1.82-1.29-2.4-2.19v2.71h-5.95V0h5.95V9.08Zm8.49,6.93c0-1.49-.42-2.65-1.25-3.48-.81-.86-1.82-1.29-3.03-1.29s-2.19,.43-3.03,1.29c-.81,.86-1.22,2.03-1.22,3.52s.41,2.66,1.22,3.52c.84,.86,1.84,1.29,3.03,1.29s2.19-.43,3.03-1.29c.84-.88,1.25-2.06,1.25-3.55Z"/>
  <path d="M113.47,0V25.76h-5.95V0h5.95Z"/>
  <path d="M134,15.73c0,.56-.04,1.14-.1,1.74h-13.47c.09,1.21,.48,2.13,1.15,2.78,.7,.63,1.54,.94,2.54,.94,1.48,0,2.52-.63,3.1-1.88h6.33c-.33,1.28-.92,2.42-1.78,3.45-.84,1.02-1.89,1.82-3.17,2.4-1.28,.58-2.7,.87-4.28,.87-1.9,0-3.6-.41-5.08-1.22-1.49-.81-2.65-1.97-3.48-3.48-.84-1.51-1.25-3.27-1.25-5.29s.41-3.78,1.22-5.29c.84-1.51,2-2.67,3.48-3.48,1.48-.81,3.19-1.22,5.12-1.22s3.55,.39,5.01,1.18c1.46,.79,2.6,1.91,3.41,3.38,.83,1.46,1.25,3.17,1.25,5.12Zm-6.09-1.57c0-1.02-.35-1.83-1.04-2.44s-1.57-.9-2.61-.9-1.84,.29-2.54,.87c-.67,.58-1.09,1.4-1.25,2.47h7.45Z"/>
</svg>