<svg xmlns="http://www.w3.org/2000/svg" xmlns:xlink="http://www.w3.org/1999/xlink" viewBox="0 0 64 64">
	<g>
		<path d="M37.33,40h-10.67c-1.53,0-2.9,.85-3.58,2.21-.68,1.36-.54,2.97,.38,4.18l5.33,7.11c.76,1.02,1.93,1.6,3.2,1.6s2.44-.58,3.2-1.6l5.33-7.11c.91-1.22,1.06-2.83,.38-4.19-.68-1.36-2.05-2.21-3.58-2.21Z"/>
		<path d="M60.9,25.72c-.71-1.87-1.59-3.76-2.61-5.61,3.42-1.8,5.71-5.38,5.71-9.45,0-5.88-4.78-10.67-10.67-10.67-3.84,0-7.41,2.24-9.34,5.56-3.54-1.8-7.53-2.89-11.99-2.89s-8.46,1.09-11.99,2.89C18.08,2.24,14.51,0,10.67,0,4.78,0,0,4.78,0,10.67c0,4.07,2.29,7.65,5.71,9.45-1.02,1.85-1.9,3.74-2.61,5.61-2.99,7.9-5.33,19.11,.55,27.61,4.89,7.08,14.42,10.66,28.35,10.66s23.47-3.59,28.35-10.66c5.88-8.51,3.54-19.71,.54-27.61Zm-4.93,24.58c-3.83,5.55-11.89,8.36-23.96,8.36s-20.13-2.81-23.96-8.36c-4.56-6.6-2.49-15.98,.05-22.69,1.24-3.28,8.23-19.61,23.91-19.61s22.67,16.34,23.91,19.61c2.54,6.71,4.61,16.09,.05,22.69Z"/>
		<path d="M25.7,33.01c2.41-3.42,2.61-4.78,2.01-7.14-1.14-4.47-3.98-5.4-6.17-5.4-5.42,0-9.65,7.32-9.7,10.98-.03,2.2,.86,4.49,2.32,5.97,1.03,1.04,2.24,1.59,3.5,1.59,3.37,0,5.95-3.03,8.04-6Z"/>
		<path d="M42.45,20.47c-2.18,0-5.03,.94-6.17,5.4-.6,2.35-.39,3.72,2.01,7.14,2.08,2.97,4.67,6,8.04,6,1.26,0,2.47-.55,3.5-1.59,1.47-1.49,2.35-3.78,2.32-5.97-.05-3.66-4.28-10.98-9.7-10.98Z"/>
</g>

</svg>