<?xml version="1.0" encoding="utf-8"?>
<!-- Generator: Adobe Illustrator 27.0.1, SVG Export Plug-In . SVG Version: 6.00 Build 0)  -->
<svg version="1.1" id="Ebene_1" xmlns="http://www.w3.org/2000/svg" xmlns:xlink="http://www.w3.org/1999/xlink" x="0px" y="0px"
	 viewBox="0 0 314.52 69.29" style="enable-background:new 0 0 314.52 69.29;" xml:space="preserve">
<style type="text/css">
	.st0{fill:#E74B94;}
	.st1{fill:url(#SVGID_1_);}
</style>
<g>
	<path class="st0" d="M39.76,42.24H29.09c-1.53,0-2.9,0.85-3.58,2.21s-0.54,2.97,0.38,4.18l5.33,7.11c0.76,1.02,1.93,1.6,3.2,1.6
		s2.44-0.58,3.2-1.6l5.33-7.11c0.91-1.22,1.06-2.83,0.38-4.19C42.65,43.08,41.28,42.23,39.76,42.24L39.76,42.24z"/>
	<path class="st0" d="M63.33,27.96c-0.71-1.87-1.59-3.76-2.61-5.61c3.42-1.8,5.71-5.38,5.71-9.45c0-5.88-4.78-10.67-10.67-10.67
		c-3.84,0-7.41,2.24-9.34,5.56c-3.54-1.8-7.53-2.89-11.99-2.89s-8.46,1.09-11.99,2.89c-1.93-3.31-5.5-5.55-9.34-5.55
		c-5.89,0-10.67,4.78-10.67,10.67c0,4.07,2.29,7.65,5.71,9.45c-1.02,1.85-1.9,3.74-2.61,5.61c-2.99,7.9-5.33,19.11,0.55,27.61
		c4.89,7.08,14.42,10.66,28.35,10.66s23.47-3.59,28.35-10.66c5.88-8.51,3.54-19.71,0.54-27.61L63.33,27.96z M58.4,52.54
		c-3.83,5.55-11.89,8.36-23.96,8.36s-20.13-2.81-23.96-8.36c-4.56-6.6-2.49-15.98,0.05-22.69c1.24-3.28,8.23-19.61,23.91-19.61
		s22.67,16.34,23.91,19.61C60.89,36.56,62.96,45.94,58.4,52.54z"/>
	<path class="st0" d="M28.13,35.25c2.41-3.42,2.61-4.78,2.01-7.14c-1.14-4.47-3.98-5.4-6.17-5.4c-5.42,0-9.65,7.32-9.7,10.98
		c-0.03,2.2,0.86,4.49,2.32,5.97c1.03,1.04,2.24,1.59,3.5,1.59C23.46,41.25,26.04,38.22,28.13,35.25z"/>
	<path class="st0" d="M44.88,22.71c-2.18,0-5.03,0.94-6.17,5.4c-0.6,2.35-0.39,3.72,2.01,7.14c2.08,2.97,4.67,6,8.04,6
		c1.26,0,2.47-0.55,3.5-1.59c1.47-1.49,2.35-3.78,2.32-5.97C54.53,30.03,50.3,22.71,44.88,22.71z"/>
</g>
<linearGradient id="SVGID_1_" gradientUnits="userSpaceOnUse" x1="84.0948" y1="74.1576" x2="312.3647" y2="74.1576" gradientTransform="matrix(1 0 0 -1 0 109.083)">
	<stop  offset="0" style="stop-color:#E74C95"/>
	<stop  offset="1" style="stop-color:#5B4B9A"/>
</linearGradient>
<path class="st1" d="M131.23,14.99v41.63h-10.14V31.65l-9.3,24.96h-8.18L94.23,31.6v25.02H84.09V14.99h11.98l11.69,28.82
	l11.55-28.82H131.23z M167.63,23.53v33.1H157.5v-4.51c-1.02,1.47-2.44,2.64-4.21,3.56c-1.74,0.87-3.68,1.31-5.81,1.31
	c-2.54,0-4.77-0.55-6.69-1.65c-1.94-1.14-3.44-2.79-4.51-4.92c-1.07-2.13-1.6-4.65-1.6-7.53V23.53h10.08V41.5
	c0,2.21,0.58,3.94,1.72,5.16c1.14,1.23,2.69,1.84,4.62,1.84s3.54-0.61,4.68-1.84c1.14-1.23,1.72-2.95,1.72-5.16V23.53
	C157.5,23.53,167.63,23.53,167.63,23.53z M213.58,23.19c4.11,0,7.38,1.24,9.78,3.73c2.45,2.49,3.68,5.95,3.68,10.37v19.33h-10.08
	V38.66c0-2.13-0.58-3.78-1.72-4.92c-1.11-1.19-2.64-1.77-4.62-1.77s-3.54,0.6-4.68,1.77c-1.11,1.14-1.65,2.79-1.65,4.92v17.97
	h-10.08V38.66c0-2.13-0.58-3.78-1.72-4.92c-1.11-1.19-2.64-1.77-4.62-1.77c-1.98,0-3.54,0.6-4.68,1.77
	c-1.11,1.14-1.65,2.79-1.65,4.92v17.97h-10.14v-33.1h10.14v4.16c1.02-1.38,2.37-2.47,4.04-3.25c1.65-0.83,3.54-1.24,5.64-1.24
	c2.49,0,4.7,0.53,6.64,1.6c1.98,1.07,3.51,2.59,4.62,4.57c1.14-1.82,2.71-3.3,4.68-4.45c1.98-1.14,4.12-1.72,6.46-1.72
	C213.6,23.19,213.58,23.19,213.58,23.19z M240.7,28.21c0.95-1.53,2.32-2.79,4.09-3.73c1.77-0.95,3.82-1.43,6.1-1.43
	c2.73,0,5.2,0.7,7.41,2.08c2.21,1.38,3.95,3.36,5.21,5.93c1.31,2.57,1.96,5.55,1.96,8.96s-0.65,6.41-1.96,9.01
	c-1.26,2.57-3,4.57-5.21,6c-2.21,1.38-4.68,2.08-7.41,2.08c-2.33,0-4.36-0.46-6.1-1.36c-1.74-0.95-3.1-2.2-4.09-3.73v4.62h-10.14
	V12.75h10.14C240.7,12.75,240.7,28.21,240.7,28.21z M255.16,40.02c0-2.54-0.72-4.51-2.13-5.93c-1.38-1.47-3.1-2.2-5.16-2.2
	c-2.06,0-3.73,0.73-5.16,2.2c-1.38,1.47-2.08,3.46-2.08,6c0,2.54,0.7,4.53,2.08,6c1.43,1.47,3.13,2.2,5.16,2.2s3.73-0.73,5.16-2.2
	c1.43-1.5,2.13-3.51,2.13-6.05l0,0V40.02z M277.39,12.75v43.88h-10.14V12.75H277.39z M312.36,39.54c0,0.95-0.07,1.94-0.17,2.96
	h-22.95c0.15,2.06,0.82,3.63,1.96,4.74c1.19,1.07,2.62,1.6,4.33,1.6c2.52,0,4.29-1.07,5.28-3.2h10.78
	c-0.56,2.18-1.57,4.12-3.03,5.88c-1.43,1.74-3.22,3.1-5.4,4.09s-4.6,1.48-7.29,1.48c-3.24,0-6.13-0.7-8.65-2.08
	c-2.54-1.38-4.51-3.36-5.93-5.93c-1.43-2.57-2.13-5.57-2.13-9.01s0.7-6.44,2.08-9.01c1.43-2.57,3.41-4.55,5.93-5.93
	c2.52-1.38,5.43-2.08,8.72-2.08c3.29,0,6.05,0.66,8.53,2.01c2.49,1.35,4.43,3.25,5.81,5.76C311.65,33.31,312.36,36.22,312.36,39.54z
	 M301.99,36.87c0-1.74-0.6-3.12-1.77-4.16c-1.18-1.04-2.67-1.53-4.45-1.53c-1.77,0-3.13,0.49-4.33,1.48
	c-1.14,0.99-1.86,2.38-2.13,4.21H301.99z"/>
</svg>
